<svg width="12" height="12" viewBox="0 0 12 12" fill="none" xmlns="http://www.w3.org/2000/svg">
<g clip-path="url(#clip0_4121_22710)">
<path d="M3.03949 11.245C3.03936 11.1465 3.05873 11.049 3.09649 10.958C3.13425 10.8671 3.18965 10.7845 3.25949 10.715L7.09549 6.87852C7.2116 6.76244 7.3037 6.62463 7.36654 6.47295C7.42938 6.32127 7.46172 6.1587 7.46172 5.99452C7.46172 5.83034 7.42938 5.66777 7.36654 5.51609C7.3037 5.36441 7.2116 5.2266 7.09549 5.11052L3.26449 1.28002C3.19286 1.21084 3.13572 1.12808 3.09641 1.03657C3.05711 0.945071 3.03642 0.846657 3.03555 0.747072C3.03469 0.647488 3.05366 0.548728 3.09137 0.456555C3.12908 0.364383 3.18477 0.280644 3.25519 0.210225C3.32561 0.139806 3.40935 0.084115 3.50152 0.0464048C3.5937 0.00869465 3.69245 -0.0102816 3.79204 -0.00941658C3.89162 -0.0085516 3.99004 0.0121384 4.08154 0.051445C4.17305 0.0907516 4.2558 0.147888 4.32499 0.219521L8.15599 4.05002C8.67108 4.56607 8.96037 5.2654 8.96037 5.99452C8.96037 6.72364 8.67108 7.42298 8.15599 7.93902L4.31999 11.7755C4.2151 11.8805 4.08143 11.952 3.9359 11.9809C3.79037 12.0099 3.63952 11.995 3.50243 11.9383C3.36534 11.8815 3.24818 11.7853 3.16578 11.6619C3.08337 11.5385 3.03942 11.3934 3.03949 11.245Z" fill="#494949"/>
</g>
<defs>
<clipPath id="clip0_4121_22710">
<rect width="12" height="12" fill="white" transform="matrix(0 -1 1 0 0 12)"/>
</clipPath>
</defs>
</svg>
