<svg width="20" height="20" viewBox="0 0 20 20" fill="none" xmlns="http://www.w3.org/2000/svg">
<circle cx="10.0001" cy="10.0001" r="8.33333" stroke="#141B34" stroke-width="1.5"/>
<path d="M10.75 5.8335C10.75 5.41928 10.4142 5.0835 10 5.0835C9.58579 5.0835 9.25 5.41928 9.25 5.8335H10.75ZM11.7803 10.7198C11.4874 10.4269 11.0126 10.4269 10.7197 10.7198C10.4268 11.0127 10.4268 11.4876 10.7197 11.7805L11.7803 10.7198ZM11.9697 13.0305C12.2626 13.3234 12.7374 13.3234 13.0303 13.0305C13.3232 12.7376 13.3232 12.2627 13.0303 11.9698L11.9697 13.0305ZM9.25 5.8335V8.75016H10.75V5.8335H9.25ZM10.7197 11.7805L11.9697 13.0305L13.0303 11.9698L11.7803 10.7198L10.7197 11.7805ZM10.5 10.0002C10.5 10.2763 10.2761 10.5002 10 10.5002V12.0002C11.1046 12.0002 12 11.1047 12 10.0002H10.5ZM10 10.5002C9.72386 10.5002 9.5 10.2763 9.5 10.0002H8C8 11.1047 8.89543 12.0002 10 12.0002V10.5002ZM9.5 10.0002C9.5 9.72402 9.72386 9.50016 10 9.50016V8.00016C8.89543 8.00016 8 8.89559 8 10.0002H9.5ZM10 9.50016C10.2761 9.50016 10.5 9.72402 10.5 10.0002H12C12 8.89559 11.1046 8.00016 10 8.00016V9.50016Z" fill="#141B34"/>
</svg>
