<svg width="20" height="20" viewBox="0 0 20 20" fill="none" xmlns="http://www.w3.org/2000/svg">
<path d="M5.83333 7.08398L8.28501 8.53351C9.71435 9.37859 10.2857 9.37859 11.715 8.53351L14.1667 7.08398" stroke="#1C1C1C" stroke-linecap="round" stroke-linejoin="round"/>
<path d="M1.6798 11.23C1.73428 13.7846 1.76152 15.0619 2.70413 16.0081C3.64673 16.9543 4.95861 16.9873 7.58236 17.0532C9.19942 17.0938 10.8006 17.0938 12.4176 17.0532C15.0414 16.9873 16.3533 16.9543 17.2959 16.0081C18.2385 15.0619 18.2657 13.7846 18.3202 11.23C18.3377 10.4086 18.3377 9.59206 18.3202 8.77065C18.2657 6.21604 18.2385 4.93874 17.2959 3.99254C16.3533 3.04635 15.0414 3.01339 12.4176 2.94747C10.8006 2.90684 9.19942 2.90683 7.58235 2.94746C4.9586 3.01338 3.64673 3.04634 2.70412 3.99253C1.76152 4.93872 1.73428 6.21603 1.6798 8.77064C1.66228 9.59205 1.66229 10.4086 1.6798 11.23Z" stroke="#1C1C1C" stroke-linejoin="round"/>
</svg>
