<svg width="23" height="20" viewBox="0 0 23 20" fill="none" xmlns="http://www.w3.org/2000/svg">
<path opacity="0.4" d="M8.57999 0.786799C10.533 0.737731 12.467 0.737734 14.42 0.786805L14.4782 0.788266C16.003 0.826555 17.23 0.857365 18.2133 1.02862C19.2428 1.20791 20.0795 1.55179 20.7864 2.26134C21.4903 2.96792 21.8324 3.79261 22.0082 4.80542C22.1757 5.76979 22.2012 6.96683 22.2328 8.44967L22.2341 8.5084C22.2553 9.50474 22.2553 10.4953 22.2341 11.4916L22.2328 11.5503C22.2012 13.0332 22.1757 14.2302 22.0082 15.1946C21.8324 16.2074 21.4903 17.0321 20.7864 17.7387C20.0795 18.4482 19.2428 18.7921 18.2133 18.9714C17.23 19.1426 16.003 19.1735 14.4782 19.2117L14.42 19.2132C12.467 19.2623 10.533 19.2623 8.57999 19.2132L8.52177 19.2117C6.99697 19.1735 5.77001 19.1426 4.7867 18.9714C3.7572 18.7921 2.92048 18.4482 2.21362 17.7387C1.50972 17.0321 1.16764 16.2074 0.991763 15.1946C0.824293 14.2302 0.798786 13.0332 0.767188 11.5504L0.765936 11.4916C0.744688 10.4953 0.744688 9.50473 0.765935 8.50839L0.767187 8.44965C0.798783 6.9668 0.824289 5.76978 0.991759 4.8054C1.16764 3.7926 1.50971 2.9679 2.21362 2.26132C2.92048 1.55177 3.7572 1.20789 4.7867 1.0286C5.77002 0.857352 6.997 0.826545 8.52182 0.788259L8.57999 0.786799Z" fill="#471DF4"/>
<path d="M5.63935 5.99122C5.92043 5.51581 6.53369 5.35828 7.0091 5.63935L9.95111 7.37878C10.7914 7.87562 11.1898 8.00016 11.5002 8.00016C11.8105 8.00016 12.2089 7.87562 13.0492 7.37878L15.9912 5.63935C16.4666 5.35828 17.0799 5.51581 17.361 5.99122C17.642 6.46663 17.4845 7.07988 17.0091 7.36096L14.0671 9.10039C13.1916 9.61803 12.3898 10.0002 11.5002 10.0002C10.6105 10.0002 9.80876 9.61803 8.93323 9.10039L5.99122 7.36096C5.51581 7.07988 5.35828 6.46663 5.63935 5.99122Z" fill="#471DF4"/>
</svg>
