<svg width="18" height="18" viewBox="0 0 18 18" fill="none" xmlns="http://www.w3.org/2000/svg">
<path d="M6.08325 11.5H11.9166M6.08325 7.33333H7.74992" stroke="#1C1C1C" stroke-linecap="round" stroke-linejoin="round"/>
<path d="M8.99996 1.5C8.39224 1.5 7.78482 1.51976 7.19112 1.55923C3.70528 1.79094 0.928633 4.60698 0.700159 8.14227C0.655448 8.8341 0.655448 9.55056 0.700159 10.2424C0.783372 11.53 1.35282 12.7222 2.02322 13.7288C2.41247 14.4336 2.15558 15.3132 1.75014 16.0815C1.4578 16.6355 1.31163 16.9125 1.42899 17.1126C1.54636 17.3127 1.80851 17.3191 2.33281 17.3318C3.36968 17.3571 4.06886 17.0631 4.62386 16.6539C4.93863 16.4217 5.09602 16.3057 5.20449 16.2923C5.31296 16.279 5.52643 16.3669 5.9533 16.5427C6.33696 16.7008 6.78243 16.7983 7.19112 16.8254C8.37793 16.9043 9.61956 16.9045 10.8088 16.8254C14.2946 16.5937 17.0713 13.7777 17.2998 10.2424C17.3262 9.83348 17.337 9.41596 17.3322 9" stroke="#1C1C1C" stroke-linecap="round" stroke-linejoin="round"/>
<path d="M14 4.00033L14.8333 3.16699M17.3333 4.00033C17.3333 5.84128 15.8409 7.33366 14 7.33366C12.159 7.33366 10.6666 5.84128 10.6666 4.00033C10.6666 2.15938 12.159 0.666992 14 0.666992C15.8409 0.666992 17.3333 2.15938 17.3333 4.00033Z" stroke="#1C1C1C" stroke-linecap="round"/>
</svg>
