<svg width="20" height="20" viewBox="0 0 20 20" fill="none" xmlns="http://www.w3.org/2000/svg">
<path d="M12.5 10.0002C12.5 9.07969 13.2462 8.3335 14.1667 8.3335C16.0076 8.3335 17.5 9.82588 17.5 11.6668C17.5 13.5078 16.0076 15.0002 14.1667 15.0002C13.2462 15.0002 12.5 14.254 12.5 13.3335V10.0002Z" stroke="#141B34" stroke-width="1.5"/>
<path d="M7.5 10.0002C7.5 9.07969 6.75381 8.3335 5.83333 8.3335C3.99238 8.3335 2.5 9.82588 2.5 11.6668C2.5 13.5078 3.99238 15.0002 5.83333 15.0002C6.75381 15.0002 7.5 14.254 7.5 13.3335V10.0002Z" stroke="#141B34" stroke-width="1.5"/>
<path d="M2.5 11.6667V9.16675C2.5 5.02461 5.85786 1.66675 10 1.66675C14.1421 1.66675 17.5 5.02461 17.5 9.16675V13.2052C17.5 14.8788 17.5 15.7156 17.2063 16.3681C16.8721 17.1108 16.2774 17.7055 15.5347 18.0397C14.8822 18.3334 14.0454 18.3334 12.3718 18.3334H10" stroke="#141B34" stroke-width="1.5" stroke-linecap="round" stroke-linejoin="round"/>
</svg>
