<svg width="15" height="15" viewBox="0 0 15 15" fill="none" xmlns="http://www.w3.org/2000/svg">
<path d="M9.83411 8.66675C9.83411 9.15 10.2259 9.54175 10.7091 9.54175C11.1924 9.54175 11.5841 9.15 11.5841 8.66675C11.5841 8.1835 11.1924 7.79175 10.7091 7.79175C10.2259 7.79175 9.83411 8.1835 9.83411 8.66675Z" stroke="#141B34"/>
<path d="M11.5258 5.16675C11.564 4.97827 11.5841 4.78319 11.5841 4.58341C11.5841 2.97258 10.2783 1.66675 8.66744 1.66675C7.05661 1.66675 5.75077 2.97258 5.75077 4.58341C5.75077 4.78319 5.77086 4.97827 5.80912 5.16675" stroke="#141B34"/>
<path d="M4.58412 5.16288H9.83412C11.484 5.16288 12.309 5.16288 12.8216 5.6757C13.3341 6.18851 13.3341 7.01386 13.3341 8.66458V9.83181C13.3341 11.4825 13.3341 12.3079 12.8216 12.8207C12.309 13.3335 11.484 13.3335 9.83412 13.3335H6.33412C4.13423 13.3335 3.03428 13.3335 2.35087 12.6497C1.66745 11.966 1.66745 10.8655 1.66745 8.66458V7.49734C1.66745 5.29639 1.66745 4.19592 2.35087 3.51217C2.901 2.96177 3.72104 2.85443 5.16745 2.8335H6.33412" stroke="#141B34" stroke-linecap="round"/>
</svg>
