<svg width="20" height="20" viewBox="0 0 20 20" fill="none" xmlns="http://www.w3.org/2000/svg">
<g clip-path="url(#clip0_4327_6820)">
<path d="M18.3333 13.332C18.3333 10.5706 16.0947 8.33203 13.3333 8.33203C10.5718 8.33203 8.33325 10.5706 8.33325 13.332C8.33325 16.0935 10.5718 18.332 13.3333 18.332C16.0947 18.332 18.3333 16.0935 18.3333 13.332Z" stroke="#141B34" stroke-width="1.5"/>
<path d="M11.6666 13.8882C11.6666 13.8882 12.1875 13.8882 12.7083 14.9993C12.7083 14.9993 14.3627 12.2216 15.8333 11.666" stroke="#141B34" stroke-width="1.5" stroke-linecap="round" stroke-linejoin="round"/>
<path d="M2.91663 9.66441L3.29163 9.01489L3.29163 9.01489L2.91663 9.66441ZM2.00156 8.74935L1.35204 9.12435H1.35204L2.00156 8.74935ZM17.0833 2.00095L16.7083 2.65047L16.7083 2.65047L17.0833 2.00095ZM17.9984 2.91602L18.6479 2.54102L18.6479 2.54101L17.9984 2.91602ZM2.91663 2.00095L3.29163 2.65047L2.91663 2.00095ZM2.00156 2.91602L2.65108 3.29102V3.29102L2.00156 2.91602ZM17.5409 7.62829C17.5004 8.04052 17.8018 8.40751 18.214 8.44798C18.6262 8.48845 18.9932 8.18708 19.0337 7.77484L17.5409 7.62829ZM6.61289 10.7493C7.02711 10.7493 7.36289 10.4136 7.36289 9.99935C7.36289 9.58513 7.02711 9.24935 6.61289 9.24935V10.7493ZM5.83329 2.41602H14.1666V0.916016H5.83329V2.41602ZM5.83329 9.24935C5.04064 9.24935 4.4963 9.24863 4.07607 9.21054C3.66615 9.17339 3.44851 9.10547 3.29163 9.01489L2.54163 10.3139C2.96486 10.5583 3.42672 10.6578 3.94067 10.7044C4.44432 10.7501 5.06825 10.7493 5.83329 10.7493V9.24935ZM0.916626 5.83268C0.916626 6.59773 0.915907 7.22165 0.961555 7.7253C1.00814 8.23926 1.10769 8.70111 1.35204 9.12435L2.65108 8.37435C2.5605 8.21746 2.49258 7.99983 2.45543 7.58991C2.41734 7.16967 2.41663 6.62533 2.41663 5.83268H0.916626ZM3.29163 9.01489C3.02559 8.8613 2.80468 8.64038 2.65108 8.37435L1.35204 9.12435C1.63729 9.61841 2.04756 10.0287 2.54163 10.3139L3.29163 9.01489ZM14.1666 2.41602C14.9593 2.41602 15.5036 2.41673 15.9239 2.45482C16.3338 2.49197 16.5514 2.55989 16.7083 2.65047L17.4583 1.35143C17.0351 1.10708 16.5732 1.00753 16.0592 0.960944C15.5556 0.915297 14.9317 0.916016 14.1666 0.916016V2.41602ZM19.0833 5.83268C19.0833 5.06764 19.084 4.44371 19.0384 3.94006C18.9918 3.42611 18.8922 2.96425 18.6479 2.54102L17.3488 3.29101C17.4394 3.4479 17.5073 3.66554 17.5445 4.07546C17.5826 4.49569 17.5833 5.04003 17.5833 5.83268H19.0833ZM16.7083 2.65047C16.9743 2.80407 17.1952 3.02498 17.3488 3.29102L18.6479 2.54101C18.3626 2.04695 17.9524 1.63668 17.4583 1.35143L16.7083 2.65047ZM5.83329 0.916016C5.06825 0.916016 4.44432 0.915297 3.94067 0.960944C3.42672 1.00753 2.96486 1.10708 2.54163 1.35143L3.29163 2.65047C3.44851 2.55989 3.66615 2.49197 4.07607 2.45482C4.4963 2.41673 5.04064 2.41602 5.83329 2.41602V0.916016ZM2.41663 5.83268C2.41663 5.04003 2.41734 4.49569 2.45543 4.07546C2.49258 3.66554 2.5605 3.4479 2.65108 3.29102L1.35204 2.54102C1.10769 2.96425 1.00814 3.42611 0.961555 3.94006C0.915907 4.44371 0.916626 5.06764 0.916626 5.83268H2.41663ZM2.54163 1.35143C2.04756 1.63668 1.63729 2.04695 1.35204 2.54102L2.65108 3.29102C2.80468 3.02498 3.02559 2.80407 3.29163 2.65047L2.54163 1.35143ZM17.5833 5.83268C17.5833 6.65164 17.5824 7.20475 17.5409 7.62829L19.0337 7.77484C19.0841 7.26093 19.0833 6.62125 19.0833 5.83268H17.5833ZM6.61289 9.24935H5.83329V10.7493H6.61289V9.24935Z" fill="#141B34"/>
<path d="M14.1666 5.83203H14.1741" stroke="#141B34" stroke-width="2" stroke-linecap="round" stroke-linejoin="round"/>
<path d="M10 5.83203H10.0075" stroke="#141B34" stroke-width="2" stroke-linecap="round" stroke-linejoin="round"/>
<path d="M5.83325 5.83203H5.84074" stroke="#141B34" stroke-width="2" stroke-linecap="round" stroke-linejoin="round"/>
</g>
<defs>
<clipPath id="clip0_4327_6820">
<rect width="20" height="20" fill="white"/>
</clipPath>
</defs>
</svg>
