<svg width="20" height="20" viewBox="0 0 20 20" fill="none" xmlns="http://www.w3.org/2000/svg">
<path d="M9.99996 18.3327C14.6023 18.3327 18.3333 14.6017 18.3333 9.99935C18.3333 5.39698 14.6023 1.66602 9.99996 1.66602C5.39759 1.66602 1.66663 5.39698 1.66663 9.99935C1.66663 11.1484 1.89919 12.2431 2.31981 13.2391C2.55228 13.7895 2.66851 14.0647 2.6829 14.2727C2.69729 14.4807 2.63608 14.7094 2.51364 15.167L1.66663 18.3327L4.83227 17.4857C5.28986 17.3632 5.51866 17.302 5.72665 17.3164C5.93463 17.3308 6.20984 17.447 6.76025 17.6795C7.75617 18.1001 8.8509 18.3327 9.99996 18.3327Z" stroke="#1C1C1C" stroke-linejoin="round"/>
<path d="M7.15671 10.3141L7.88249 9.41271C8.18839 9.03279 8.56654 8.67908 8.59614 8.17322C8.60362 8.04546 8.51371 7.47181 8.33392 6.32456C8.26326 5.87369 7.8423 5.83301 7.47769 5.83301C7.00254 5.83301 6.76496 5.83301 6.52904 5.94077C6.23087 6.07697 5.92474 6.45993 5.85756 6.78078C5.80441 7.03464 5.84391 7.20957 5.92291 7.55941C6.25844 9.04536 7.0456 10.5129 8.26615 11.7334C9.48671 12.954 10.9542 13.7412 12.4402 14.0767C12.79 14.1557 12.9649 14.1952 13.2188 14.142C13.5397 14.0749 13.9226 13.7687 14.0588 13.4705C14.1666 13.2346 14.1666 12.9971 14.1666 12.5219C14.1666 12.1573 14.1259 11.7363 13.675 11.6657C12.5278 11.4859 11.9541 11.396 11.8264 11.4035C11.3205 11.4331 10.9668 11.8112 10.5869 12.1171L9.68547 12.8429" stroke="#1C1C1C"/>
</svg>
