<svg width="25" height="24" viewBox="0 0 25 24" fill="none" xmlns="http://www.w3.org/2000/svg">
<path opacity="0.4" d="M9.57999 2.7868C11.533 2.73773 13.467 2.73773 15.42 2.78681L15.4782 2.78827C17.003 2.82656 18.23 2.85737 19.2133 3.02862C20.2428 3.20791 21.0795 3.55179 21.7864 4.26134C22.4903 4.96792 22.8324 5.79261 23.0082 6.80542C23.1757 7.76979 23.2012 8.96683 23.2328 10.4497L23.2341 10.5084C23.2553 11.5047 23.2553 12.4953 23.2341 13.4916L23.2328 13.5503C23.2012 15.0332 23.1757 16.2302 23.0082 17.1946C22.8324 18.2074 22.4903 19.0321 21.7864 19.7387C21.0795 20.4482 20.2428 20.7921 19.2133 20.9714C18.23 21.1426 17.003 21.1735 15.4782 21.2117L15.42 21.2132C13.467 21.2623 11.533 21.2623 9.57999 21.2132L9.52177 21.2117C7.99697 21.1735 6.77001 21.1426 5.7867 20.9714C4.7572 20.7921 3.92048 20.4482 3.21362 19.7387C2.50972 19.0321 2.16764 18.2074 1.99176 17.1946C1.82429 16.2302 1.79879 15.0332 1.76719 13.5504L1.76594 13.4916C1.74469 12.4953 1.74469 11.5047 1.76593 10.5084L1.76719 10.4496C1.79878 8.9668 1.82429 7.76978 1.99176 6.8054C2.16764 5.7926 2.50971 4.9679 3.21362 4.26132C3.92048 3.55177 4.7572 3.20789 5.7867 3.0286C6.77002 2.85735 7.997 2.82655 9.52182 2.78826L9.57999 2.7868Z" fill="#494949"/>
<path d="M6.63935 7.99122C6.92043 7.51581 7.53369 7.35828 8.0091 7.63935L10.9511 9.37878C11.7914 9.87562 12.1898 10.0002 12.5002 10.0002C12.8105 10.0002 13.2089 9.87562 14.0492 9.37878L16.9912 7.63935C17.4666 7.35828 18.0799 7.51581 18.361 7.99122C18.642 8.46663 18.4845 9.07988 18.0091 9.36096L15.0671 11.1004C14.1916 11.618 13.3898 12.0002 12.5002 12.0002C11.6105 12.0002 10.8088 11.618 9.93323 11.1004L6.99122 9.36096C6.51581 9.07988 6.35828 8.46663 6.63935 7.99122Z" fill="#494949"/>
</svg>
