<svg width="16" height="20" viewBox="0 0 16 20" fill="none" xmlns="http://www.w3.org/2000/svg">
<path d="M0.916626 8.33268C0.916626 5.18999 0.916626 3.61864 1.95396 2.64233C2.99129 1.66602 4.66084 1.66602 7.99996 1.66602H8.6439C11.3616 1.66602 12.7204 1.66602 13.6641 2.33088C13.9344 2.52137 14.1745 2.74729 14.3769 3.00176C15.0833 3.88991 15.0833 5.16881 15.0833 7.72662V9.84783C15.0833 12.3171 15.0833 13.5518 14.6925 14.5379C14.0643 16.1232 12.7357 17.3736 11.0513 17.9649C10.0036 18.3327 8.69178 18.3327 6.06814 18.3327C4.56892 18.3327 3.81931 18.3327 3.22061 18.1225C2.25812 17.7846 1.49892 17.0701 1.13993 16.1642C0.916626 15.6007 0.916626 14.8952 0.916626 13.4842V8.33268Z" stroke="#141B34" stroke-width="1.5" stroke-linejoin="round"/>
<path d="M15.0833 10C15.0833 11.5341 13.8397 12.7778 12.3056 12.7778C11.7507 12.7778 11.0966 12.6806 10.5572 12.8251C10.0779 12.9535 9.70353 13.3279 9.5751 13.8072C9.43056 14.3466 9.52778 15.0007 9.52778 15.5556C9.52778 17.0897 8.28412 18.3333 6.75 18.3333" stroke="#141B34" stroke-width="1.5" stroke-linecap="round" stroke-linejoin="round"/>
<path d="M4.66663 5.83203H10.5" stroke="#141B34" stroke-width="1.5" stroke-linecap="round" stroke-linejoin="round"/>
<path d="M4.66663 9.16602H7.16663" stroke="#141B34" stroke-width="1.5" stroke-linecap="round" stroke-linejoin="round"/>
</svg>
