<svg width="20" height="20" viewBox="0 0 20 20" fill="none" xmlns="http://www.w3.org/2000/svg">
<path d="M11.25 2.52807C10.2343 2.48213 9.19317 2.49262 8.19112 2.55923C4.70528 2.79094 1.92863 5.60698 1.70016 9.14227C1.65545 9.8341 1.65545 10.5506 1.70016 11.2424C1.78337 12.53 2.35282 13.7222 3.02322 14.7288C3.41247 15.4336 3.15558 16.3132 2.75014 17.0815C2.4578 17.6355 2.31163 17.9125 2.42899 18.1126C2.54636 18.3127 2.80851 18.3191 3.33281 18.3318C4.36968 18.3571 5.06886 18.0631 5.62386 17.6539C5.93863 17.4217 6.09601 17.3057 6.20449 17.2923C6.31296 17.279 6.52643 17.3669 6.9533 17.5427C7.33696 17.7008 7.78243 17.7983 8.19112 17.8254C9.37793 17.9043 10.6196 17.9045 11.8088 17.8254C15.2946 17.5937 18.0713 14.7777 18.2998 11.2424C18.3174 10.97 18.328 10.6937 18.3318 10.4167" stroke="#1C1C1C" stroke-linecap="round" stroke-linejoin="round"/>
<path d="M7.08325 12.5H12.9166M7.08325 8.33333H9.99992" stroke="#1C1C1C" stroke-linecap="round" stroke-linejoin="round"/>
<path d="M13.3333 6.25065C13.7429 6.67207 14.8331 8.33398 15.4166 8.33398M17.4999 6.25065C17.0903 6.67207 16.0001 8.33398 15.4166 8.33398M15.4166 8.33398V1.66732" stroke="#1C1C1C" stroke-linecap="round" stroke-linejoin="round"/>
</svg>
