<svg width="33" height="42" viewBox="0 0 33 42" fill="none" xmlns="http://www.w3.org/2000/svg">
<g clip-path="url(#clip0_4322_6821)">
<path d="M25.7867 17.0107V26.5568L22.617 24.9737L19.252 23.2895V20.7834L24.9918 17.4688L25.7867 17.0107Z" stroke="#494949"/>
<path d="M29.3538 12.2239L31.7286 10.8529V8.12452L29.3538 9.49543V4.04199L26.6658 5.59483L24.9917 6.56157L19.0498 9.99062L12.515 13.7633L11.326 14.4504L7.96094 16.394V40.9397L29.3538 28.5877V23.1342L31.7286 21.7599V19.0348L29.3538 20.4058V17.6774L31.7286 16.3064V13.578L29.3538 14.9523V12.2239ZM18.0628 31.0163L11.5248 34.7889V29.3355L13.0001 28.4832L18.0628 25.5595V31.0163ZM18.0628 24.1986L11.7336 27.85L11.5248 27.9713V18.4251L12.515 17.8525L18.0628 14.6525V24.1986ZM25.7867 26.5565L19.2519 30.3291V20.783L24.9917 17.4685L25.7867 17.0104V26.5565ZM25.7867 15.6462L25.3993 15.8685L24.9917 16.1043L19.2519 19.4188V13.9654L20.7239 13.1165L24.9917 10.6508L25.4026 10.415L25.7867 10.1927V15.6462Z" stroke="#494949"/>
<path d="M25.7867 26.5564L19.252 30.3291V23.2891L22.617 24.9733L25.7867 26.5564Z" stroke="#494949"/>
<path d="M25.7864 10.1929V15.6463L22.8457 14.1777L20.7236 13.1166L24.9914 10.651L25.4024 10.4152L25.7864 10.1929Z" stroke="#494949"/>
<path d="M25.7867 15.6464L25.3993 15.8687L24.9918 16.1045L19.252 19.4191V13.9656L20.724 13.1167L22.8461 14.1778L25.7867 15.6464Z" stroke="#494949"/>
<path d="M18.0627 14.6528V24.1989L17.6552 23.9935L12.5149 21.4267L11.5247 20.9316V18.4255L12.5149 17.8528L18.0627 14.6528Z" stroke="#494949"/>
<path d="M18.0627 24.199L11.7335 27.8504L11.5247 27.9717V20.9316L12.5149 21.4268L17.6552 23.9935L18.0627 24.199Z" stroke="#494949"/>
<path d="M18.0627 25.5596V31.0164L15.1221 29.5478L13 28.4833L18.0627 25.5596Z" stroke="#494949"/>
<path d="M18.0627 31.0165L11.5247 34.7891V29.3356L13 28.4834L15.1221 29.5478L18.0627 31.0165Z" stroke="#494949"/>
<path d="M29.3538 4.04225L26.6658 5.59509L24.9917 6.56183L19.0498 9.99088L12.5151 13.7635L11.326 14.4507L7.96096 16.3942L5.02033 14.9222L1.22412 13.0258L22.617 0.673828L29.3538 4.04225Z" stroke="#494949"/>
<path d="M7.96096 16.3943V40.94L1.22412 37.5716V13.0259L5.02033 14.9223L7.96096 16.3943Z" stroke="#494949"/>
<path d="M31.7285 8.12465L29.3538 6.93896" stroke="#494949"/>
<path d="M31.7285 13.5782L29.3538 14.9526V12.3926L31.7285 13.5782Z" stroke="#494949"/>
<path d="M31.7285 19.0348L29.3538 20.4058V17.8491L31.7285 19.0348Z" stroke="#494949"/>
</g>
<defs>
<clipPath id="clip0_4322_6821">
<rect width="32" height="41.7684" fill="white" transform="translate(0.5)"/>
</clipPath>
</defs>
</svg>
