<svg width="21" height="20" viewBox="0 0 21 20" fill="none" xmlns="http://www.w3.org/2000/svg">
<path d="M18.8333 13.4917C18.8333 16.525 17.025 18.3333 13.9917 18.3333H13C12.5417 18.3333 12.1667 17.9583 12.1667 17.5V12.6917C12.1667 12.4667 12.35 12.275 12.575 12.275L14.0417 12.25C14.1583 12.2417 14.2583 12.1583 14.2833 12.0417L14.575 10.45C14.6 10.3 14.4833 10.1583 14.325 10.1583L12.55 10.1833C12.3167 10.1833 12.1333 10 12.125 9.77501L12.0917 7.73334C12.0917 7.6 12.2 7.48335 12.3417 7.48335L14.3417 7.45001C14.4833 7.45001 14.5917 7.34168 14.5917 7.20002L14.5583 5.2C14.5583 5.05833 14.45 4.95001 14.3083 4.95001L12.0583 4.98335C10.675 5.00835 9.57501 6.14167 9.60001 7.525L9.64167 9.81667C9.65 10.05 9.46667 10.2333 9.23334 10.2417L8.23333 10.2583C8.09166 10.2583 7.98334 10.3667 7.98334 10.5083L8.00834 12.0917C8.00834 12.2333 8.11666 12.3417 8.25833 12.3417L9.25834 12.325C9.49167 12.325 9.67499 12.5083 9.68332 12.7333L9.75832 17.4833C9.76665 17.95 9.39165 18.3333 8.92499 18.3333H7.00833C3.975 18.3333 2.16666 16.525 2.16666 13.4833V6.50834C2.16666 3.475 3.975 1.66667 7.00833 1.66667H13.9917C17.025 1.66667 18.8333 3.475 18.8333 6.50834V13.4917Z" fill="#5541D7"/>
</svg>
