<svg width="20" height="20" viewBox="0 0 20 20" fill="none" xmlns="http://www.w3.org/2000/svg">
<path d="M5.8335 7.0835L8.28518 8.53302C9.71451 9.3781 10.2858 9.3781 11.7152 8.53302L14.1668 7.0835" stroke="#141B34" stroke-width="1.5" stroke-linecap="round" stroke-linejoin="round"/>
<path d="M1.67989 11.2298C1.73437 13.7844 1.76161 15.0617 2.70421 16.0079C3.64682 16.9541 4.95869 16.987 7.58244 17.0529C9.19951 17.0936 10.8007 17.0936 12.4177 17.0529C15.0415 16.987 16.3533 16.9541 17.296 16.0079C18.2386 15.0617 18.2658 13.7844 18.3203 11.2298C18.3378 10.4084 18.3378 9.59181 18.3203 8.77041C18.2658 6.2158 18.2386 4.93849 17.296 3.9923C16.3534 3.04611 15.0415 3.01315 12.4177 2.94722C10.8007 2.90659 9.1995 2.90659 7.58243 2.94722C4.95869 3.01313 3.64682 3.04609 2.70421 3.99229C1.7616 4.93848 1.73436 6.21579 1.67989 8.7704C1.66237 9.5918 1.66237 10.4084 1.67989 11.2298Z" stroke="#141B34" stroke-width="1.5" stroke-linejoin="round"/>
</svg>
