<svg width="20" height="20" viewBox="0 0 20 20" fill="none" xmlns="http://www.w3.org/2000/svg">
<path d="M7.61186 2.08325C5.38996 2.13388 4.09217 2.34538 3.20545 3.22902C2.42939 4.00239 2.16997 5.08955 2.08325 6.83325M12.388 2.08325C14.6099 2.13388 15.9077 2.34538 16.7944 3.22902C17.5704 4.00239 17.8299 5.08955 17.9166 6.83325M12.388 17.9166C14.6099 17.866 15.9077 17.6545 16.7944 16.7708C17.5704 15.9974 17.8299 14.9103 17.9166 13.1666M7.61186 17.9166C5.38996 17.866 4.09217 17.6545 3.20545 16.7708C2.42939 15.9974 2.16997 14.9103 2.08325 13.1666" stroke="#141B34" stroke-width="1.5" stroke-linecap="round" stroke-linejoin="round"/>
<path d="M6.25 14.1666C8.19308 12.1314 11.786 12.0356 13.75 14.1666M12.0792 7.91659C12.0792 9.06718 11.1452 9.99992 9.99294 9.99992C8.84071 9.99992 7.90664 9.06718 7.90664 7.91659C7.90664 6.76599 8.84071 5.83325 9.99294 5.83325C11.1452 5.83325 12.0792 6.76599 12.0792 7.91659Z" stroke="#141B34" stroke-width="1.5" stroke-linecap="round"/>
</svg>
