<svg width="20" height="20" viewBox="0 0 20 20" fill="none" xmlns="http://www.w3.org/2000/svg">
<path d="M5.4165 14.5833L5.4165 12.0833M9.58317 14.5833L9.58317 7.08325M13.7498 14.5833V11.2499" stroke="#141B34" stroke-width="1.5" stroke-linecap="round"/>
<path d="M17.9165 4.58325C17.9165 5.96396 16.7972 7.08325 15.4165 7.08325C14.0358 7.08325 12.9165 5.96396 12.9165 4.58325C12.9165 3.20254 14.0358 2.08325 15.4165 2.08325C16.7972 2.08325 17.9165 3.20254 17.9165 4.58325Z" stroke="#141B34" stroke-width="1.5"/>
<path d="M17.9129 9.16659C17.9129 9.16659 17.9166 9.44953 17.9166 9.99994C17.9166 13.7319 17.9166 15.5979 16.7572 16.7572C15.5978 17.9166 13.7319 17.9166 9.99992 17.9166C6.26797 17.9166 4.40199 17.9166 3.24262 16.7572C2.08325 15.5979 2.08325 13.7319 2.08325 9.99994C2.08325 6.26799 2.08325 4.40202 3.24262 3.24265C4.40199 2.08328 6.26797 2.08328 9.99992 2.08328L10.8333 2.08325" stroke="#141B34" stroke-width="1.5" stroke-linecap="round" stroke-linejoin="round"/>
</svg>
