<svg width="36" height="52" viewBox="0 0 36 52" fill="none" xmlns="http://www.w3.org/2000/svg">
<g clip-path="url(#clip0_4313_23955)">
<path d="M35.0555 15.793V19.4565L33.4588 20.257L28.5544 22.7092L26.585 23.6918V20.0283L35.0555 15.793Z" stroke="#B3261E"/>
<path d="M35.0556 15.7932L26.585 20.0285L25.666 19.4991L18.9191 15.6069L18.6057 15.4247L27.0763 11.1895L35.0556 15.7932Z" stroke="#B3261E"/>
<path d="M25.6659 19.5001L18.9191 15.6079L18.6057 15.4257V13.5961L11.1219 9.27609L9.0339 8.06904V9.89868L1.05884 5.29492V8.95421L2.65131 9.8775V37.3349L24.9882 50.2313V22.7697L26.585 23.693V20.0295L25.6659 19.5001ZM16.128 29.6351L20.2024 36.6657L18.7412 37.5001L17.9704 37.9405L17.1953 36.6064L13.8198 30.7871L11.1219 32.3245L9.67343 33.1504L7.43719 29.3005L11.1219 27.1998L11.5878 26.933L11.1219 26.1283L7.43719 19.7796L9.67343 18.5048L11.1219 21.0036L13.8198 25.6582L17.9704 23.2949L18.1017 23.5194L18.1694 23.6422L18.2287 23.7396L20.2024 27.149L17.8857 28.4704L16.056 29.5123L16.128 29.6351Z" stroke="#B3261E"/>
<path d="M15.8061 4.684L11.1219 7.02612L9.0339 8.068V9.89765L1.05884 5.29389L9.52943 1.05859L15.8061 4.684Z" stroke="#B3261E"/>
<path d="M20.2024 36.6654L18.7412 37.4997L17.9704 37.9402L17.1954 36.6061L13.8198 30.7868L16.1281 29.6348L20.2024 36.6654Z" stroke="#B3261E"/>
<path d="M16.0561 29.5115L16.1281 29.6343L13.8198 30.7863L11.122 32.3237L9.67349 33.1496L7.43726 29.2997L11.122 27.4574L15.9078 25.0645L17.8857 28.4696L16.0561 29.5115Z" stroke="#B3261E"/>
<path d="M18.1695 23.6413L11.5878 26.9321L11.122 26.1274L7.43726 19.7787L9.67349 18.5039L11.122 21.0027L13.8198 25.6573L18.1017 23.5185L18.1695 23.6413Z" stroke="#B3261E"/>
<path d="M18.2288 23.738L15.9078 25.0637L11.122 27.4566L7.43726 29.299L11.122 27.1983L11.5878 26.9314L18.1695 23.6406L18.2288 23.738Z" stroke="#B3261E"/>
<path d="M27.0763 9.35938V11.189L18.6057 15.4243V13.5947L27.0763 9.35938Z" stroke="#B3261E"/>
<path d="M27.0763 9.35907L18.6057 13.5944L11.1219 9.27437L9.03394 8.06731L11.1219 7.02542L15.8062 4.6833L17.5045 3.83203L27.0763 9.35907Z" stroke="#B3261E"/>
<path d="M33.4589 20.2578V45.9957L24.9883 50.231V22.7693L26.585 23.6926L28.5544 22.71L33.4589 20.2578Z" stroke="#B3261E"/>
<path d="M18.1017 23.5194L13.8198 25.6582L17.9704 23.2949L18.1017 23.5194Z" stroke="#B3261E"/>
</g>
<defs>
<clipPath id="clip0_4313_23955">
<rect width="36" height="51.247" fill="white"/>
</clipPath>
</defs>
</svg>
