<svg width="18" height="17" viewBox="0 0 18 17" fill="none" xmlns="http://www.w3.org/2000/svg">
<path d="M9.08011 12.1617L6.56581 9.80808C6.4855 9.73196 6.37698 9.68767 6.26274 9.6844C6.1485 9.68113 6.03729 9.71912 5.95216 9.7905C5.86702 9.86189 5.81448 9.96119 5.80542 10.0678C5.79637 10.1745 5.83148 10.2803 5.9035 10.3634L5.93626 10.3974L9.20937 13.4614C9.28691 13.534 9.39032 13.5772 9.49979 13.5828C9.60926 13.5884 9.71709 13.556 9.80261 13.4917L9.83893 13.4614L13.112 10.3974C13.1934 10.3222 13.2407 10.2206 13.2442 10.1137C13.2477 10.0068 13.2071 9.90266 13.1308 9.82296C13.0546 9.74327 12.9485 9.69409 12.8345 9.68561C12.7206 9.67713 12.6076 9.71 12.5188 9.77741L12.4828 9.80808L9.97032 12.1601L9.97032 9.16675C9.97032 8.08208 9.71358 7.07341 9.22255 6.19875L9.14314 6.06208C8.61226 5.17224 7.82787 4.43785 6.87738 3.94075C5.90991 3.43275 4.78006 3.16675 3.56083 3.16675C3.44278 3.16675 3.32957 3.21065 3.24609 3.28879C3.16262 3.36693 3.11572 3.47291 3.11572 3.58341C3.11572 3.69392 3.16262 3.7999 3.24609 3.87804C3.32957 3.95618 3.44278 4.00008 3.56083 4.00008C4.63086 4.00008 5.61044 4.23075 6.44225 4.66775C7.2499 5.08968 7.91636 5.71345 8.36724 6.46941C8.80771 7.20508 9.05234 8.06375 9.07798 9.00075L9.08011 9.16675V12.1617Z" fill="#27AE60"/>
</svg>
