<svg width="20" height="20" viewBox="0 0 20 20" fill="none" xmlns="http://www.w3.org/2000/svg">
<g clip-path="url(#clip0_4327_6825)">
<path d="M18.2998 9.14227C18.3445 9.8341 18.3445 10.5506 18.2998 11.2424C18.0713 14.7777 15.2946 17.5937 11.8088 17.8254C10.6196 17.9045 9.37793 17.9043 8.19112 17.8254C7.78243 17.7983 7.33696 17.7008 6.9533 17.5427C6.52643 17.3669 6.31296 17.279 6.20449 17.2923C6.09602 17.3057 5.93863 17.4217 5.62386 17.6539C5.06886 18.0631 4.36968 18.3571 3.33281 18.3318C2.80851 18.3191 2.54636 18.3127 2.42899 18.1126C2.31163 17.9125 2.4578 17.6355 2.75014 17.0815C3.15558 16.3132 3.41247 15.4336 3.02322 14.7288C2.35282 13.7222 1.78337 12.53 1.70016 11.2424C1.65545 10.5506 1.65545 9.8341 1.70016 9.14227C1.92863 5.60698 4.70528 2.79094 8.19112 2.55923C9.19317 2.49262 9.40096 2.48213 10.4166 2.52807" stroke="#141B34" stroke-width="1.5" stroke-linecap="round" stroke-linejoin="round"/>
<path d="M18.3333 4.58268C18.3333 6.19351 17.0275 7.49935 15.4167 7.49935C13.8058 7.49935 12.5 6.19351 12.5 4.58268C12.5 2.97185 13.8058 1.66602 15.4167 1.66602C17.0275 1.66602 18.3333 2.97185 18.3333 4.58268Z" stroke="#141B34" stroke-width="1.5"/>
</g>
<defs>
<clipPath id="clip0_4327_6825">
<rect width="20" height="20" fill="white"/>
</clipPath>
</defs>
</svg>
