<svg width="20" height="20" viewBox="0 0 20 20" fill="none" xmlns="http://www.w3.org/2000/svg">
<path d="M7.08333 12.083H12.9167M7.08333 7.91634H10" stroke="#1C1C1C" stroke-linecap="round" stroke-linejoin="round"/>
<path d="M11.8088 17.4084C15.2947 17.1767 18.0713 14.3607 18.2998 10.8254C18.3445 10.1336 18.3445 9.41711 18.2998 8.72528C18.0713 5.18999 15.2947 2.37395 11.8088 2.14224C10.6196 2.06318 9.37797 2.06335 8.19116 2.14224C4.70532 2.37395 1.92867 5.18999 1.7002 8.72528C1.65549 9.41711 1.65549 10.1336 1.7002 10.8254C1.78341 12.113 2.35286 13.3052 3.02326 14.3118C3.41251 15.0166 3.15562 15.8962 2.75018 16.6645C2.45784 17.2185 2.31167 17.4955 2.42903 17.6956C2.5464 17.8957 2.80855 17.9021 3.33285 17.9148C4.36972 17.9401 5.0689 17.6461 5.6239 17.2369C5.93867 17.0047 6.09606 16.8887 6.20453 16.8753C6.313 16.862 6.52647 16.9499 6.95334 17.1257C7.337 17.2838 7.78247 17.3813 8.19116 17.4084C9.37797 17.4873 10.6196 17.4875 11.8088 17.4084Z" stroke="#1C1C1C" stroke-linejoin="round"/>
</svg>
