<svg width="49" height="48" viewBox="0 0 49 48" fill="none" xmlns="http://www.w3.org/2000/svg">
<g clip-path="url(#clip0_4195_22649)">
<path d="M37.8458 41.4631H30.0878H27.9987H27.5475V31.0569H30.9509C31.814 31.0569 32.324 30.0761 31.814 29.37L25.1936 20.2094C24.7719 19.6209 23.899 19.6209 23.4772 20.2094L16.8569 29.37C16.3469 30.0761 16.8471 31.0569 17.72 31.0569H21.1233V41.4631H20.6722H18.5831H9.58921C4.44005 41.1787 0.340332 36.363 0.340332 31.1452C0.340332 27.5457 2.29211 24.4072 5.18545 22.7104C4.92063 21.9944 4.78332 21.2294 4.78332 20.4251C4.78332 16.7472 7.75513 13.7754 11.4331 13.7754C12.2275 13.7754 12.9926 13.9127 13.7085 14.1775C15.8369 9.66584 20.427 6.53711 25.7625 6.53711C32.6673 6.54692 38.3559 11.8334 39.0032 18.5714C44.3093 19.4836 48.3403 24.3973 48.3403 29.9584C48.3403 35.902 43.711 41.0512 37.8458 41.4631Z" fill="#5D5D5D"/>
</g>
<defs>
<clipPath id="clip0_4195_22649">
<rect width="48" height="48" fill="white" transform="translate(0.340332)"/>
</clipPath>
</defs>
</svg>
