<svg width="18" height="18" viewBox="0 0 18 18" fill="none" xmlns="http://www.w3.org/2000/svg">
<path d="M17.3318 7.33366C17.3298 7.06295 17.3259 6.79207 17.3202 6.52065C17.2657 3.96604 17.2384 2.68874 16.2958 1.74254C15.3532 0.796351 14.0414 0.76339 11.4176 0.697466C9.80054 0.656836 8.19938 0.656834 6.58231 0.697461C3.95857 0.763379 2.64669 0.796338 1.70409 1.74253C0.761479 2.68872 0.73424 3.96603 0.679763 6.52064C0.662247 7.34205 0.662247 8.1586 0.679764 8.98001C0.734243 11.5346 0.761483 12.8119 1.70409 13.7581C2.6467 14.7043 3.95857 14.7373 6.58232 14.8032C7.25128 14.82 7.91752 14.8299 8.58329 14.8328" stroke="#1C1C1C" stroke-linecap="round" stroke-linejoin="round"/>
<path d="M13.4999 17.3333C13.4999 17.6095 13.7238 17.8333 13.9999 17.8333C14.2761 17.8333 14.4999 17.6095 14.4999 17.3333H13.4999ZM11.5109 13.741C11.3679 13.5048 11.0605 13.4293 10.8242 13.5723C10.588 13.7154 10.5125 14.0228 10.6556 14.259L11.5109 13.741ZM17.3443 14.259C17.4873 14.0228 17.4118 13.7154 17.1756 13.5723C16.9394 13.4293 16.6319 13.5048 16.4889 13.741L17.3443 14.259ZM15.0259 10.5686V11.7206H16.0259V10.5686H15.0259ZM12.9742 11.7206V10.5686H11.9742V11.7206H12.9742ZM14.0001 12.7892C13.4464 12.7892 12.9742 12.3239 12.9742 11.7206H11.9742C11.9742 12.8499 12.8683 13.7892 14.0001 13.7892V12.7892ZM15.0259 11.7206C15.0259 12.3239 14.5537 12.7892 14.0001 12.7892V13.7892C15.1319 13.7892 16.0259 12.8499 16.0259 11.7206H15.0259ZM14.0001 9.5C14.5537 9.5 15.0259 9.96533 15.0259 10.5686H16.0259C16.0259 9.43927 15.1319 8.5 14.0001 8.5V9.5ZM14.0001 8.5C12.8683 8.5 11.9742 9.43927 11.9742 10.5686H12.9742C12.9742 9.96533 13.4464 9.5 14.0001 9.5V8.5ZM13.4999 15.6667V17.3333H14.4999V15.6667H13.4999ZM13.9999 15.1667C12.9553 15.1667 12.0324 14.6021 11.5109 13.741L10.6556 14.259C11.346 15.3992 12.5825 16.1667 13.9999 16.1667V15.1667ZM16.4889 13.741C15.9674 14.6021 15.0445 15.1667 13.9999 15.1667V16.1667C15.4173 16.1667 16.6538 15.3992 17.3443 14.259L16.4889 13.741Z" fill="#1C1C1C"/>
<path d="M0.666626 2.75L6.42748 6.02052C8.53218 7.21538 9.46774 7.21538 11.5724 6.02052L17.3333 2.75" stroke="#1C1C1C" stroke-linejoin="round"/>
</svg>
